<svg xmlns="http://www.w3.org/2000/svg" width="73" height="74" viewBox="0 0 73 74">
  <g id="Group_3190" data-name="Group 3190" transform="translate(-150 -579)">
    <ellipse id="Ellipse_141" data-name="Ellipse 141" cx="36.5" cy="37" rx="36.5" ry="37" transform="translate(150 579)" fill="#e6e6e6" opacity="0.51"/>
    <path id="Path_2174" data-name="Path 2174" d="M24.5,0A24.5,24.5,0,1,1,0,24.5,24.5,24.5,0,0,1,24.5,0Z" transform="translate(162 592)" fill="#de1937"/>
    <g id="Group_2000" data-name="Group 2000" transform="translate(172 598.161)" style="isolation: isolate">
      <path id="Path_4387" data-name="Path 4387" d="M2.642,68.228a.516.516,0,0,0,0,.712L6.06,72.358a.516.516,0,0,0,.712,0L8.6,70.53,4.47,66.4Z" transform="translate(0 -44.661)" fill="#fff"/>
      <path id="Path_4388" data-name="Path 4388" d="M34.216,52.447a1.194,1.194,0,0,0-1.139-.475l-3.655.617c0,.095-.024.166-.024.261a2.221,2.221,0,0,1-2.018,1.78l-.237.024a22.12,22.12,0,0,1-3.964-.071l-1.068-.119a.608.608,0,0,1,.119-1.211l1.068.119a24.737,24.737,0,0,0,3.75.071l.237-.024a1.008,1.008,0,0,0,.926-.807.962.962,0,0,0-.166-.76,1.007,1.007,0,0,0-.641-.427l-5.578-.973A2.885,2.885,0,0,0,20,50.738l-5.2,2.73,4.32,4.32L23.772,58.9a3.27,3.27,0,0,0,2.4-.356l7.667-4.391a1.161,1.161,0,0,0,.57-.76A1.227,1.227,0,0,0,34.216,52.447Z" transform="translate(-9.381 -32.465)" fill="#fff"/>
      <path id="Path_4389" data-name="Path 4389" d="M39.831,15.9l5.863,1.9a3.764,3.764,0,0,0,1.258.19,4.358,4.358,0,0,0,1.875-.451,4.122,4.122,0,0,0,2.065-2.4,4.177,4.177,0,0,0-.261-3.157,4,4,0,0,0-2.4-2.041l-5.863-1.9a4.126,4.126,0,0,0-5.2,2.658,4.177,4.177,0,0,0,.261,3.157A4,4,0,0,0,39.831,15.9Zm5.032-5.388,2.9.926a2.644,2.644,0,0,1,1.5,1.282,2.533,2.533,0,0,1,.166,1.946,2.644,2.644,0,0,1-1.282,1.5,2.533,2.533,0,0,1-1.946.166L43.32,15.4Zm-6.266.4a.561.561,0,0,1,.285-.332.537.537,0,0,1,.427-.024.567.567,0,0,1,.356.712,1.8,1.8,0,0,0,.119,1.4,1.76,1.76,0,0,0,1.068.9l.736.237a.561.561,0,0,1,.332.285.537.537,0,0,1,.024.427.563.563,0,0,1-.546.38.4.4,0,0,1-.166-.024l-.736-.237a2.949,2.949,0,0,1-1.733-1.472A3.088,3.088,0,0,1,38.6,10.915Z" transform="translate(-26.294)" fill="#fff"/>
    </g>
  </g>
</svg>
