<svg xmlns="http://www.w3.org/2000/svg" width="22.936" height="29.214" viewBox="0 0 22.936 29.214"><defs><style>.a{isolation:isolate;}.b{fill:#092882;}</style></defs><g class="a"><g transform="translate(0 0)"><path class="b" d="M35.564,27.077h1.183v1.192a.406.406,0,0,0,.406.406H38.74a.406.406,0,0,0,.406-.406V27.077h1.183a.406.406,0,0,0,.406-.406v-1.6a.406.406,0,0,0-.406-.406H39.146V23.476a.406.406,0,0,0-.406-.406H37.152a.406.406,0,0,0-.406.406v1.192H35.564a.406.406,0,0,0-.406.406v1.6A.406.406,0,0,0,35.564,27.077Zm.406-1.6h1.183a.406.406,0,0,0,.406-.406V23.882h.777v1.192a.406.406,0,0,0,.406.406h1.183v.786H38.74a.406.406,0,0,0-.406.406v1.192h-.777V26.671a.406.406,0,0,0-.406-.406H35.97Z" transform="translate(-29.712 -19.39)"/><path class="b" d="M43.556,15.123A3.79,3.79,0,0,0,40.886,14c-.008,0-.016,0-.024,0H25.545a3.824,3.824,0,0,0-3.809,3.829V40.981A1.219,1.219,0,0,0,22.953,42.2H35.782l.174.225a2.009,2.009,0,0,0,1.351.774,2.067,2.067,0,0,0,.256.016,2.007,2.007,0,0,0,1.241-.43,2.04,2.04,0,0,0,.5-2.632,3.2,3.2,0,1,0-1.443-6.231V27.678h4.7a2.115,2.115,0,0,0,2.108-2.117V17.829A3.815,3.815,0,0,0,43.556,15.123Zm-5.25,27.02,0,0a1.209,1.209,0,0,1-1.706-.216L35.35,40.31l1.926-1.5.949,1.231.007.006.289.374A1.233,1.233,0,0,1,38.306,42.143Zm-3.451-2.475-1.245-1.615a1.231,1.231,0,0,1,.216-1.723,1.217,1.217,0,0,1,.187-.12c.023-.012.046-.021.07-.031a1.2,1.2,0,0,1,.134-.052c.028-.009.056-.015.084-.022a1.179,1.179,0,0,1,.133-.023c.029,0,.057-.006.086-.007a1.2,1.2,0,0,1,.2.005,1.226,1.226,0,0,1,.814.464l.16.209h0l.374.486h0l.712.923Zm3.9-.277h0l-1.084-1.4h0l-.453-.588h3.89A2.391,2.391,0,0,1,38.758,39.391Zm0-4.792a2.39,2.39,0,0,1,2.348,1.989H36.59l-.137-.177c0-.019.008-.039.014-.058.01-.035.021-.07.032-.1s.033-.1.052-.146.027-.067.042-.1.044-.094.068-.139.033-.062.051-.092c.027-.046.056-.09.086-.134.019-.028.037-.055.057-.082.033-.044.069-.087.105-.129.02-.023.04-.048.061-.07.041-.043.084-.084.128-.125.02-.019.039-.038.06-.056.052-.044.106-.085.162-.126.016-.012.031-.025.048-.036a2.476,2.476,0,0,1,.23-.14A2.352,2.352,0,0,1,38.758,34.6ZM37.052,17.829V34.282c-.014.009-.026.021-.04.03a3.232,3.232,0,0,0-.324.241l-.023.018a3.179,3.179,0,0,0-.3.3c-.028.032-.053.065-.079.1-.066.081-.127.164-.184.251-.025.037-.049.074-.072.113a3.179,3.179,0,0,0-.164.312c-.009.019-.021.036-.029.055a2.01,2.01,0,0,0-.244-.166c-.017-.01-.036-.018-.053-.027a2.027,2.027,0,0,0-.272-.122c-.03-.011-.06-.022-.091-.032a2.1,2.1,0,0,0-.351-.081,2,2,0,0,0-1.5.415,2.043,2.043,0,0,0-.358,2.858l2.188,2.838h-12.2a.406.406,0,0,1-.406-.406V17.829a3.011,3.011,0,0,1,3-3.018H38.52A3.831,3.831,0,0,0,37.052,17.829ZM43.86,25.56a1.3,1.3,0,0,1-1.3,1.306h-4.7V17.935a3.132,3.132,0,0,1,1.946-2.928h0c.077-.03.156-.056.236-.079l.1-.027c.053-.013.106-.026.159-.036s.1-.017.158-.024.087-.012.13-.016.093-.005.14-.007a3,3,0,0,1,3.123,3.011V25.56Z" transform="translate(-21.735 -14)"/><path class="b" d="M41.478,46.695H34.06a.406.406,0,0,0,0,.811h7.418a.406.406,0,0,0,0-.811Z" transform="translate(-28.818 -33.429)"/><path class="b" d="M30.6,46.695H30.53a.406.406,0,1,0,0,.811H30.6a.406.406,0,1,0,0-.811Z" transform="translate(-26.72 -33.429)"/><path class="b" d="M49.722,55.976h-.071a.406.406,0,1,0,0,.811h.071a.406.406,0,0,0,0-.811Z" transform="translate(-38.083 -38.945)"/><path class="b" d="M38.827,56.381a.406.406,0,0,0-.406-.406H33.046a.406.406,0,0,0,0,.811h5.375A.406.406,0,0,0,38.827,56.381Z" transform="translate(-28.216 -38.945)"/><path class="b" d="M42.427,65.257H39.094a.406.406,0,0,0,0,.811h3.333a.406.406,0,0,0,0-.811Z" transform="translate(-31.81 -44.46)"/><path class="b" d="M35.635,65.257h-.071a.406.406,0,0,0,0,.811h.071a.406.406,0,0,0,0-.811Z" transform="translate(-29.712 -44.46)"/></g></g></svg>